<svg width="32" height="30" viewBox="0 0 32 30" fill="none" xmlns="http://www.w3.org/2000/svg">
<path d="M9.91555 0.000244203C10.9103 0.0304958 11.8734 0.204177 12.8065 0.52154H12.8997C12.9628 0.55154 13.0102 0.584697 13.0418 0.614697C13.3907 0.7268 13.7207 0.853114 14.0365 1.0268L14.6365 1.29521C14.8733 1.42153 15.1575 1.65678 15.3154 1.7531C15.4733 1.84626 15.647 1.94257 15.7891 2.05151C17.5432 0.711011 19.6732 -0.0152929 21.8679 0.000244203C22.8641 0.000244203 23.8589 0.14102 24.8046 0.458383C30.6324 2.35309 32.7323 8.74772 30.9781 14.3371C29.9834 17.1934 28.3572 19.8002 26.2272 21.9301C23.1783 24.8827 19.8326 27.5037 16.2312 29.7616L15.8364 30L15.4259 29.7458C11.8118 27.5037 8.44717 24.8827 5.36988 21.9143C3.25415 19.7844 1.6263 17.1934 0.615799 14.3371C-1.16836 8.74772 0.93158 2.35309 6.82247 0.425226C7.28035 0.267334 7.75245 0.15681 8.22612 0.0952316H8.41559C8.85926 0.0304958 9.29977 0.000244203 9.74187 0.000244203H9.91555ZM23.9836 4.98989C23.3362 4.76726 22.6257 5.1162 22.3889 5.77935C22.1678 6.44249 22.5152 7.1688 23.1783 7.40406C24.1904 7.783 24.8678 8.7793 24.8678 9.88296V9.93191C24.8378 10.2935 24.9467 10.6424 25.1678 10.9108C25.3888 11.1793 25.7204 11.3356 26.0677 11.3687C26.7151 11.3514 27.2677 10.8319 27.3151 10.1672V9.97928C27.3624 7.76721 26.022 5.76356 23.9836 4.98989Z" fill="#D38B97"/>
</svg>
