<svg width="15" height="18" viewBox="0 0 15 18" fill="none" xmlns="http://www.w3.org/2000/svg">
<path d="M7.49422 0C11.6083 0 15 3.28049 15 7.3392C15 9.38443 14.2562 11.2832 13.0319 12.8926C11.6813 14.6678 10.0166 16.2145 8.14283 17.4286C7.71398 17.7092 7.32695 17.7304 6.85628 17.4286C4.97183 16.2145 3.30714 14.6678 1.96809 12.8926C0.742927 11.2832 0 9.38443 0 7.3392C0 3.28049 3.39166 0 7.49422 0ZM7.49422 5.0972C6.13382 5.0972 5.02432 6.21864 5.02432 7.56772C5.02432 8.92739 6.13382 9.99677 7.49422 9.99677C8.85551 9.99677 9.97568 8.92739 9.97568 7.56772C9.97568 6.21864 8.85551 5.0972 7.49422 5.0972Z" fill="#D38B97"/>
</svg>
