<svg width="15" height="15" viewBox="0 0 15 15" fill="none" xmlns="http://www.w3.org/2000/svg">
<path d="M7.515 0C11.775 0 15 3.49274 15 7.48873C15 12.1232 11.22 15 7.5 15C6.27 15 4.905 14.6695 3.81 14.0235C3.4275 13.7907 3.105 13.6179 2.6925 13.7531L1.1775 14.2038C0.795 14.324 0.45 14.0235 0.5625 13.6179L1.065 11.9354C1.1475 11.7026 1.1325 11.4547 1.0125 11.2594C0.3675 10.0726 0 8.77316 0 7.51127C0 3.56034 3.1575 0 7.515 0ZM10.9425 6.55734C10.41 6.55734 9.9825 6.98548 9.9825 7.51878C9.9825 8.04457 10.41 8.48022 10.9425 8.48022C11.475 8.48022 11.9025 8.04457 11.9025 7.51878C11.9025 6.98548 11.475 6.55734 10.9425 6.55734ZM7.485 6.55734C6.96 6.54982 6.525 6.98548 6.525 7.51127C6.525 8.04457 6.9525 8.47271 7.485 8.48022C8.0175 8.48022 8.445 8.04457 8.445 7.51878C8.445 6.98548 8.0175 6.55734 7.485 6.55734ZM4.0275 6.55734C3.495 6.55734 3.0675 6.98548 3.0675 7.51878C3.0675 8.04457 3.5025 8.48022 4.0275 8.48022C4.56 8.47271 4.9875 8.04457 4.9875 7.51878C4.9875 6.98548 4.56 6.55734 4.0275 6.55734Z" fill="#D38B97"/>
</svg>
