<svg width="32" height="30" viewBox="0 0 32 30" fill="none" xmlns="http://www.w3.org/2000/svg">
<path d="M25.1301 18.6619C24.7212 19.0582 24.5334 19.6313 24.6265 20.1934L26.0299 27.9613C26.1483 28.6197 25.8705 29.2859 25.3195 29.6664C24.7796 30.0611 24.0614 30.1085 23.4725 29.7927L16.4808 26.1456C16.2376 26.0162 15.9677 25.9467 15.6914 25.9388H15.2636C15.1152 25.9609 14.97 26.0083 14.8374 26.0809L7.84404 29.7454C7.49832 29.9191 7.10682 29.9806 6.72321 29.9191C5.78866 29.7422 5.1651 28.8518 5.31823 27.9123L6.72321 20.1444C6.81635 19.5776 6.62849 19.0014 6.21963 18.5988L0.519175 13.0728C0.0424271 12.6102 -0.12333 11.9155 0.0945221 11.2887C0.306059 10.6635 0.845953 10.2072 1.49793 10.1046L9.34375 8.96624C9.94047 8.90467 10.4646 8.54153 10.7329 8.00473L14.1902 0.915728C14.2722 0.757844 14.378 0.612591 14.5059 0.489441L14.648 0.378922C14.7222 0.296822 14.8074 0.228932 14.9021 0.173673L15.0742 0.110519L15.3426 0H16.0072C16.6007 0.0615748 17.1233 0.416814 17.3964 0.947305L20.8994 8.00473C21.1519 8.52101 21.6429 8.87941 22.2096 8.96624L30.0554 10.1046C30.7185 10.1993 31.2726 10.6572 31.492 11.2887C31.6988 11.9218 31.5204 12.6165 31.0342 13.0728L25.1301 18.6619Z" fill="#D38B97"/>
</svg>
