<?xml version="1.0" encoding="utf-8"?><svg xmlns="http://www.w3.org/2000/svg" xmlns:xlink="http://www.w3.org/1999/xlink"><symbol viewBox="0 0 32 30" id="heart" xmlns="http://www.w3.org/2000/svg"><path d="M9.91555 0.000244203C10.9103 0.0304958 11.8734 0.204177 12.8065 0.52154H12.8997C12.9628 0.55154 13.0102 0.584697 13.0418 0.614697C13.3907 0.7268 13.7207 0.853114 14.0365 1.0268L14.6365 1.29521C14.8733 1.42153 15.1575 1.65678 15.3154 1.7531C15.4733 1.84626 15.647 1.94257 15.7891 2.05151C17.5432 0.711011 19.6732 -0.0152929 21.8679 0.000244203C22.8641 0.000244203 23.8589 0.14102 24.8046 0.458383C30.6324 2.35309 32.7323 8.74772 30.9781 14.3371C29.9834 17.1934 28.3572 19.8002 26.2272 21.9301C23.1783 24.8827 19.8326 27.5037 16.2312 29.7616L15.8364 30L15.4259 29.7458C11.8118 27.5037 8.44717 24.8827 5.36988 21.9143C3.25415 19.7844 1.6263 17.1934 0.615799 14.3371C-1.16836 8.74772 0.93158 2.35309 6.82247 0.425226C7.28035 0.267334 7.75245 0.15681 8.22612 0.0952316H8.41559C8.85926 0.0304958 9.29977 0.000244203 9.74187 0.000244203H9.91555ZM23.9836 4.98989C23.3362 4.76726 22.6257 5.1162 22.3889 5.77935C22.1678 6.44249 22.5152 7.1688 23.1783 7.40406C24.1904 7.783 24.8678 8.7793 24.8678 9.88296V9.93191C24.8378 10.2935 24.9467 10.6424 25.1678 10.9108C25.3888 11.1793 25.7204 11.3356 26.0677 11.3687C26.7151 11.3514 27.2677 10.8319 27.3151 10.1672V9.97928C27.3624 7.76721 26.022 5.76356 23.9836 4.98989Z"/></symbol><symbol viewBox="0 0 15 18" id="location" xmlns="http://www.w3.org/2000/svg"><path d="M7.49422 0C11.6083 0 15 3.28049 15 7.3392C15 9.38443 14.2562 11.2832 13.0319 12.8926C11.6813 14.6678 10.0166 16.2145 8.14283 17.4286C7.71398 17.7092 7.32695 17.7304 6.85628 17.4286C4.97183 16.2145 3.30714 14.6678 1.96809 12.8926C0.742927 11.2832 0 9.38443 0 7.3392C0 3.28049 3.39166 0 7.49422 0ZM7.49422 5.0972C6.13382 5.0972 5.02432 6.21864 5.02432 7.56772C5.02432 8.92739 6.13382 9.99677 7.49422 9.99677C8.85551 9.99677 9.97568 8.92739 9.97568 7.56772C9.97568 6.21864 8.85551 5.0972 7.49422 5.0972Z"/></symbol><symbol viewBox="0 0 15 15" id="mail" xmlns="http://www.w3.org/2000/svg"><path d="M7.515 0C11.775 0 15 3.49274 15 7.48873C15 12.1232 11.22 15 7.5 15C6.27 15 4.905 14.6695 3.81 14.0235C3.4275 13.7907 3.105 13.6179 2.6925 13.7531L1.1775 14.2038C0.795 14.324 0.45 14.0235 0.5625 13.6179L1.065 11.9354C1.1475 11.7026 1.1325 11.4547 1.0125 11.2594C0.3675 10.0726 0 8.77316 0 7.51127C0 3.56034 3.1575 0 7.515 0ZM10.9425 6.55734C10.41 6.55734 9.9825 6.98548 9.9825 7.51878C9.9825 8.04457 10.41 8.48022 10.9425 8.48022C11.475 8.48022 11.9025 8.04457 11.9025 7.51878C11.9025 6.98548 11.475 6.55734 10.9425 6.55734ZM7.485 6.55734C6.96 6.54982 6.525 6.98548 6.525 7.51127C6.525 8.04457 6.9525 8.47271 7.485 8.48022C8.0175 8.48022 8.445 8.04457 8.445 7.51878C8.445 6.98548 8.0175 6.55734 7.485 6.55734ZM4.0275 6.55734C3.495 6.55734 3.0675 6.98548 3.0675 7.51878C3.0675 8.04457 3.5025 8.48022 4.0275 8.48022C4.56 8.47271 4.9875 8.04457 4.9875 7.51878C4.9875 6.98548 4.56 6.55734 4.0275 6.55734Z"/></symbol><symbol viewBox="0 0 26 30" id="profile" xmlns="http://www.w3.org/2000/svg"><path d="M12.7811 19.7609C19.7126 19.7609 25.5621 20.8184 25.5621 24.8984C25.5621 28.98 19.6742 30 12.7811 30C5.85113 30 0 28.9425 0 24.8624C0 20.7809 5.88789 19.7609 12.7811 19.7609ZM12.7811 0C17.4767 0 21.2389 3.53104 21.2389 7.93658C21.2389 12.3421 17.4767 15.8747 12.7811 15.8747C8.08706 15.8747 4.32322 12.3421 4.32322 7.93658C4.32322 3.53104 8.08706 0 12.7811 0Z"/></symbol><symbol viewBox="0 0 32 30" id="star" xmlns="http://www.w3.org/2000/svg"><path d="M25.1301 18.6619C24.7212 19.0582 24.5334 19.6313 24.6265 20.1934L26.0299 27.9613C26.1483 28.6197 25.8705 29.2859 25.3195 29.6664C24.7796 30.0611 24.0614 30.1085 23.4725 29.7927L16.4808 26.1456C16.2376 26.0162 15.9677 25.9467 15.6914 25.9388H15.2636C15.1152 25.9609 14.97 26.0083 14.8374 26.0809L7.84404 29.7454C7.49832 29.9191 7.10682 29.9806 6.72321 29.9191C5.78866 29.7422 5.1651 28.8518 5.31823 27.9123L6.72321 20.1444C6.81635 19.5776 6.62849 19.0014 6.21963 18.5988L0.519175 13.0728C0.0424271 12.6102 -0.12333 11.9155 0.0945221 11.2887C0.306059 10.6635 0.845953 10.2072 1.49793 10.1046L9.34375 8.96624C9.94047 8.90467 10.4646 8.54153 10.7329 8.00473L14.1902 0.915728C14.2722 0.757844 14.378 0.612591 14.5059 0.489441L14.648 0.378922C14.7222 0.296822 14.8074 0.228932 14.9021 0.173673L15.0742 0.110519L15.3426 0H16.0072C16.6007 0.0615748 17.1233 0.416814 17.3964 0.947305L20.8994 8.00473C21.1519 8.52101 21.6429 8.87941 22.2096 8.96624L30.0554 10.1046C30.7185 10.1993 31.2726 10.6572 31.492 11.2887C31.6988 11.9218 31.5204 12.6165 31.0342 13.0728L25.1301 18.6619Z"/></symbol><symbol viewBox="0 0 15 15" id="tel" xmlns="http://www.w3.org/2000/svg"><path fill-rule="evenodd" clip-rule="evenodd" d="M7.13032 7.87294C10.2796 11.0213 10.994 7.37899 12.9992 9.38275C14.9323 11.3153 16.0434 11.7025 13.5941 14.1511C13.2873 14.3976 11.3381 17.3639 4.48784 10.5155C-2.36327 3.66632 0.601251 1.71509 0.847871 1.40838C3.30305 -1.04696 3.68358 0.0705654 5.6167 2.00315C7.62187 4.00776 3.98105 4.72454 7.13032 7.87294Z"/></symbol><symbol viewBox="0 0 15 15" id="time" xmlns="http://www.w3.org/2000/svg"><path d="M7.5 0C11.6475 0 15 3.36 15 7.5C15 11.6475 11.6475 15 7.5 15C3.36 15 0 11.6475 0 7.5C0 3.36 3.36 0 7.5 0ZM7.2375 3.6975C6.93 3.6975 6.675 3.945 6.675 4.26V8.0475C6.675 8.2425 6.78 8.4225 6.9525 8.5275L9.8925 10.2825C9.9825 10.335 10.08 10.365 10.185 10.365C10.3725 10.365 10.56 10.2675 10.665 10.0875C10.8225 9.825 10.74 9.48 10.47 9.315L7.8 7.725V4.26C7.8 3.945 7.545 3.6975 7.2375 3.6975Z"/></symbol></svg>