<?xml version="1.0" encoding="utf-8"?><svg viewBox="0 0 32 30" xmlns="http://www.w3.org/2000/svg" xmlns:xlink="http://www.w3.org/1999/xlink"><style>:root>svg{display:none}:root>svg:target{display:block}</style><svg fill="none" viewBox="0 0 32 30" id="heart" xmlns="http://www.w3.org/2000/svg"><path d="M9.916 0c.994.03 1.957.204 2.89.522h.094c.063.03.11.063.142.093.349.112.679.238.995.412l.6.268c.236.127.52.362.678.458.158.093.332.19.474.299A9.89 9.89 0 0 1 21.868 0c.996 0 1.99.141 2.937.458 5.827 1.895 7.927 8.29 6.173 13.88a20.095 20.095 0 0 1-4.75 7.592 60.724 60.724 0 0 1-9.997 7.832l-.395.238-.41-.254A60.147 60.147 0 0 1 5.37 21.914a20.419 20.419 0 0 1-4.754-7.577C-1.168 8.747.932 2.353 6.822.425c.458-.158.93-.268 1.404-.33h.19A9.155 9.155 0 0 1 9.742 0h.174Zm14.068 4.99a1.264 1.264 0 0 0-1.595.79c-.221.662.126 1.389.79 1.624 1.011.379 1.689 1.375 1.689 2.479v.049c-.03.361.079.71.3.979.22.268.552.425.9.458a1.298 1.298 0 0 0 1.247-1.202V9.98c.047-2.212-1.293-4.215-3.331-4.99Z" fill="#D38B97"/></svg><svg fill="none" viewBox="0 0 15 18" id="location" xmlns="http://www.w3.org/2000/svg"><path d="M7.494 0C11.608 0 15 3.28 15 7.34c0 2.044-.744 3.943-1.968 5.553a19.47 19.47 0 0 1-4.89 4.536c-.428.28-.815.301-1.286 0a19.095 19.095 0 0 1-4.888-4.536C.743 11.283 0 9.384 0 7.339 0 3.28 3.392 0 7.494 0Zm0 5.097a2.482 2.482 0 0 0-2.47 2.47c0 1.36 1.11 2.43 2.47 2.43 1.362 0 2.482-1.07 2.482-2.43 0-1.348-1.12-2.47-2.482-2.47Z" fill="#D38B97"/></svg><svg fill="none" viewBox="0 0 15 15" id="mail" xmlns="http://www.w3.org/2000/svg"><path d="M7.515 0C11.775 0 15 3.493 15 7.489 15 12.123 11.22 15 7.5 15c-1.23 0-2.595-.33-3.69-.976-.382-.233-.705-.406-1.118-.27l-1.515.45c-.382.12-.727-.18-.615-.586l.503-1.683a.786.786 0 0 0-.052-.676C.367 10.073 0 8.773 0 7.511 0 3.561 3.158 0 7.515 0Zm3.428 6.557a.963.963 0 0 0 0 1.923.963.963 0 0 0 0-1.923Zm-3.458 0a.956.956 0 0 0-.96.954c0 .534.427.962.96.97a.963.963 0 0 0 0-1.924Zm-3.458 0a.958.958 0 0 0-.96.962c0 .526.435.961.96.961a.967.967 0 0 0 .96-.961.958.958 0 0 0-.96-.962Z" fill="#D38B97"/></svg><svg fill="none" viewBox="0 0 26 30" id="profile" xmlns="http://www.w3.org/2000/svg"><path d="M12.781 19.76c6.932 0 12.781 1.058 12.781 5.138 0 4.082-5.888 5.102-12.78 5.102C5.851 30 0 28.942 0 24.862c0-4.081 5.888-5.101 12.781-5.101Zm0-19.76c4.696 0 8.458 3.531 8.458 7.937 0 4.405-3.762 7.938-8.458 7.938-4.694 0-8.458-3.533-8.458-7.938C4.323 3.53 8.087 0 12.781 0Z" fill="#D38B97"/></svg><svg fill="none" viewBox="0 0 32 30" id="star" xmlns="http://www.w3.org/2000/svg"><path d="M25.13 18.662c-.409.396-.597.97-.503 1.531l1.403 7.768a1.705 1.705 0 0 1-.71 1.705 1.738 1.738 0 0 1-1.848.127l-6.991-3.647a1.786 1.786 0 0 0-.79-.207h-.427c-.149.022-.294.07-.427.142l-6.993 3.664c-.346.174-.737.236-1.12.174a1.755 1.755 0 0 1-1.406-2.007l1.405-7.768A1.767 1.767 0 0 0 6.22 18.6l-5.7-5.526a1.705 1.705 0 0 1-.425-1.784 1.773 1.773 0 0 1 1.403-1.184l7.846-1.139a1.755 1.755 0 0 0 1.389-.961L14.19.915a1.64 1.64 0 0 1 .316-.426l.142-.11c.074-.082.16-.15.254-.205l.172-.063.269-.111h.664a1.766 1.766 0 0 1 1.39.947l3.502 7.058c.253.516.744.874 1.31.961l7.846 1.139a1.79 1.79 0 0 1 1.437 1.184 1.715 1.715 0 0 1-.458 1.784l-5.904 5.589Z" fill="#D38B97"/></svg><svg fill="none" viewBox="0 0 15 15" id="tel" xmlns="http://www.w3.org/2000/svg"><path fill-rule="evenodd" clip-rule="evenodd" d="M7.13 7.873c3.15 3.148 3.864-.494 5.87 1.51 1.932 1.932 3.043 2.32.594 4.768-.307.247-2.256 3.213-9.106-3.636C-2.363 3.666.6 1.715.848 1.409c2.455-2.455 2.836-1.337 4.769.595C7.622 4.008 3.98 4.725 7.13 7.873Z" fill="#D38B97"/></svg><svg fill="none" viewBox="0 0 15 15" id="time" xmlns="http://www.w3.org/2000/svg"><path d="M7.5 0C11.648 0 15 3.36 15 7.5c0 4.148-3.352 7.5-7.5 7.5C3.36 15 0 11.648 0 7.5 0 3.36 3.36 0 7.5 0Zm-.263 3.697a.562.562 0 0 0-.562.563v3.787c0 .195.105.375.277.48l2.94 1.756a.556.556 0 0 0 .772-.195.565.565 0 0 0-.194-.773L7.8 7.725V4.26a.562.562 0 0 0-.563-.563Z" fill="#D38B97"/></svg></svg>