<svg width="1920" height="57" viewBox="0 0 1920 57" fill="none" xmlns="http://www.w3.org/2000/svg">
<path d="M1920 39.9L1893.33 41.8059C1866.67 43.6406 1813.33 47.5594 1760 50.3559C1706.67 53.2594 1653.33 55.0406 1600 46.5441C1546.67 37.9406 1493.33 19.0594 1440 15.1941C1386.67 11.4 1333.33 22.8 1280 23.7441C1226.67 24.7594 1173.33 15.1406 1120 12.3441C1066.67 9.44063 1013.33 13.3594 960 20.8941C906.667 28.5 853.333 39.9 800 41.8059C746.667 43.6406 693.333 36.1594 640 29.4441C586.667 22.8 533.333 17.1 480 13.3059C426.667 9.44063 373.333 7.65938 320 12.3441C266.667 17.1 213.333 28.5 160 37.05C106.667 45.6 53.3333 51.3 26.6666 54.15L-5.72205e-05 57V1.90735e-06H26.6666C53.3333 1.90735e-06 106.667 1.90735e-06 160 1.90735e-06C213.333 1.90735e-06 266.667 1.90735e-06 320 1.90735e-06C373.333 1.90735e-06 426.667 1.90735e-06 480 1.90735e-06C533.333 1.90735e-06 586.667 1.90735e-06 640 1.90735e-06C693.333 1.90735e-06 746.667 1.90735e-06 800 1.90735e-06C853.333 1.90735e-06 906.667 1.90735e-06 960 1.90735e-06C1013.33 1.90735e-06 1066.67 1.90735e-06 1120 1.90735e-06C1173.33 1.90735e-06 1226.67 1.90735e-06 1280 1.90735e-06C1333.33 1.90735e-06 1386.67 1.90735e-06 1440 1.90735e-06C1493.33 1.90735e-06 1546.67 1.90735e-06 1600 1.90735e-06C1653.33 1.90735e-06 1706.67 1.90735e-06 1760 1.90735e-06C1813.33 1.90735e-06 1866.67 1.90735e-06 1893.33 1.90735e-06H1920V39.9Z" fill="#F4F4F4"/>
</svg>
