<svg width="450" height="67" viewBox="0 0 450 67" fill="none" xmlns="http://www.w3.org/2000/svg">
<path d="M1 56.8231C2.33382 51.0673 7.39975 46.4456 11.948 43.2189C20.0566 37.4663 33.0463 30.8358 41.7201 27.4412C74.841 14.4789 109.92 8.07215 145.056 4.25768C171.294 1.40923 194.29 0.128189 220.471 1.64148C237.168 2.60659 250.445 4.21916 265.799 10.2548C271.651 12.5552 280.803 16.1335 282.339 23.9395C284.303 33.9228 269.001 42.8632 262.885 46.6803C246.415 56.9593 227.168 64.3759 207.83 65.9194C205.767 66.084 197.038 66.1378 194.204 64.6315C189.177 61.9596 203.315 57.3029 208.736 55.6156C254.021 41.5198 301.671 34.9041 348.657 30.3392C382.048 27.095 415.499 25.4437 449 26.3947" stroke="#D38B97" stroke-opacity="0.2" stroke-width="2" stroke-linecap="round" stroke-dasharray="6 6"/>
</svg>
